<svg width="113" height="111" viewBox="0 0 113 111" fill="none" xmlns="http://www.w3.org/2000/svg">
<path fill-rule="evenodd" clip-rule="evenodd" d="M76.7309 19.9795H43.9255C31.6422 19.9795 21.6846 29.9188 21.6846 42.1796V88.7999C21.6846 101.061 31.6422 111 43.9255 111H90.6315C94.8384 111 98.7725 109.834 102.127 107.808L93.2282 97.2957C92.4067 97.5455 91.5348 97.6799 90.6315 97.6799H43.9255C39.0122 97.6799 35.0291 93.7042 35.0291 88.7999V42.1796C35.0291 37.2753 39.0122 33.2996 43.9255 33.2996H76.7309V19.9795ZM90.6315 33.2996C95.5448 33.2996 99.5279 37.2753 99.5279 42.1796V88.7999C99.5279 89.4627 99.4551 90.1085 99.3172 90.7298L108.674 101.784C111.316 98.1325 112.872 93.6476 112.872 88.7999V42.1796C112.872 29.9188 102.915 19.9795 90.6315 19.9795V33.2996Z" fill="#3885FF"/>
<path fill-rule="evenodd" clip-rule="evenodd" d="M22.2409 13.3201C21.3376 13.3201 20.4657 13.4545 19.6442 13.7043L10.7452 3.19162C14.0999 1.16589 18.034 0 22.2409 0H68.9469C81.2302 0 91.1879 9.93934 91.1879 22.2001V68.8204C91.1879 81.0812 81.2302 91.0205 68.9469 91.0205H34.4735V77.7004H68.9469C73.8602 77.7004 77.8433 73.7247 77.8433 68.8204V22.2001C77.8433 17.2958 73.8602 13.3201 68.9469 13.3201H22.2409ZM20.5729 77.5446C16.4569 76.7653 13.3446 73.1556 13.3446 68.8204V22.2001C13.3446 21.5373 13.4173 20.8915 13.5553 20.2702L4.1983 9.21648C1.55668 12.8675 0 17.3524 0 22.2001V68.8204C0 80.5211 9.06863 90.1076 20.5729 90.959V77.5446Z" fill="#3885FF"/>
</svg>
